<svg xmlns="http://www.w3.org/2000/svg" xml:space="preserve" id="Layer_1" x="0" y="0" style="enable-background:new 0 0 256 256" version="1.1" viewBox="0 0 256 256"><style>.st1{fill:#111008}.st2{fill:#13120a}.st4{fill:#fafbfa}.st6{fill:#cfcbc0}.st7{fill:#cfcabf}.st8{fill:#cdc9c1}.st9{fill:#cfccc3}.st10{fill:#f8f8f7}.st11{fill:#d79807}.st12{fill:#c8a94b}.st14{fill:#f1f2f2}.st16{fill:#b58210}.st20{fill:#d1950d}.st22{fill:#131107}</style><path d="M88.9 89.1c-7.8-19.5.4-40.5 17.6-50.9.9-.6 1.1-.9.3-1.7-.9-.8-1.7-1.7-2.5-2.7-2.1-2.6-4-4.1-7.9-2.6-5.2 2-11.2-1.8-13.2-7.4-1.9-5.5.7-12 5.9-14.5 5.3-2.6 11.9-.7 15.1 4.4 1.2 1.9 1.9 4 1.7 6.2-.1 1 .2 1.6.9 2.3 3.9 3.4 7.7 6.9 10.9 10.9.5.6 1.1.5 1.7.4 5.9-1.6 11.8-1.5 17.7-.1.7.2 1.1.1 1.6-.5 3.2-3.7 6.5-7.2 10.3-10.3.9-.7 1.3-1.5 1.3-2.8-.1-5.1 3.3-9.8 8-11.2 5.2-1.5 10.3.4 13.3 5 2.8 4.4 2.4 10.1-1.1 14-3.4 3.9-8.9 5.1-13.6 2.8-1.1-.5-1.7-.4-2.5.4-1.6 1.8-3.3 3.6-5.1 5.3-1 .9-.9 1.4.3 2.1 8.9 5.4 15.1 13 18.5 22.9 3.3 9.4 2.8 18.7-.9 28.1 1.1.2 1.9-.5 2.7-1 14.5-8 29.1-16.1 43.6-24.1 8.3-4.5 17-6.1 26.1-2.6 17.9 6.9 22 31.1 7.6 44.4-2 1.8-2.8 3.5-3 6.2-1.2 20.2-15.9 33.6-36.1 33.4h-2.4c1.1 1.5 2.1 2.8 3.1 4.2 1.2 1.5 2.3 3.1 2.9 4.9.4.9 1.1 1.4 2 1.8 8 4 12.1 13 9.8 21.2-2.5 8.8-10.3 14.2-19.2 13.4-8.6-.8-15.8-8.5-15.9-17.2 0-1 0-2-.8-2.9-5.1-5.5-10.1-11.1-15.2-16.7-.3-.3-.6-.5-1.1-1v32.6c0 9.3-4.1 15.4-12.7 19-.8.3-1 .7-1.2 1.4-2.9 9-8.7 15.4-17.6 18.9-1.3.5-1.9 1.2-2.4 2.4-2.7 7.4-5.4 14.9-8.2 22.3-.3.7-.3 2-1.4 1.9-1 0-1-1.2-1.2-1.9-2.8-7.5-5.6-15.1-8.3-22.6-.4-1.1-1-1.6-2.1-2-8.9-3.4-14.6-9.9-17.6-18.9-.3-1-.8-1.4-1.8-1.8-7-2.4-12-9.2-12.1-16.6-.1-10.9-.1-21.9-.1-32.8v-2.3c-1.8 2-3.3 3.5-4.8 5.2-3.8 4.3-7.7 8.5-11.5 12.8-.7.7-1 1.5-1 2.5-.2 8.5-5.8 15.5-14 17.4-7.8 1.8-15.8-1.9-19.7-9.3-3.8-7.1-2.2-16.3 3.8-21.9.5-.5 1-1.1 1.6-1.4 5.9-2.1 6.9-8.6 11.4-12.6-3.4-.2-6.4.1-9.2-.4-17.4-2.9-29-16-29.6-33.6-.1-2.3-.8-3.7-2.5-5.2-10.8-9.3-12.3-26.1-3.4-37 7.9-9.7 21.7-12.7 33.7-7 10.4 4.9 20.2 11 30.3 16.5L88.6 89c.1.1.1.2.2.2.1.2.1 0 .1-.1zM114 208.2c.6 1.3 1.7 2.1 2.8 2.8 2.9 2.6 6.4 3.5 10.1 3.9 6.1.7 14-3.4 16.5-8.5.1 0 .2-.1.2-.1.6-1.7-.9-.9-1.3-.9-8.5-.1-17 0-25.5 0H112c.7 1.1 1 2.2 2 2.8zm41.9-16.7c1.2-.2 1.7-1.1 2-2.1.6-3.6.9-7.2-.3-10.8 1-.3.6-1.2.4-1.5-.5-.8-1.5-.4-2.3-.4h-53.3c-4.9 0-5 0-4.9 4.9 0 2.6-.6 5.2.5 7.7.3 1.1.8 2 2 2.2.3.1.5.3.8.4.5.4 1.1.3 1.7.3h50.7c.9 0 1.9.2 2.6-.6l.1-.1zm-58.4-28.6c.4.6.9.3 1.4.3 14.8 0 29.6 0 44.4-.1 4.7 0 9.5-.1 14.2-.2h.1l.1-.1c.8-.2.5-.9.5-1.4 0-4.2 0-8.5-.1-12.7 0-.4.1-.8-.4-1-3.6-.1-7.3-.2-10.9-.2H99c-.8 0-1.8-.2-1.8 1.2.3 4.9.3 9.5.3 14.2zm58.4-28.5c2 .5 2.7-.3 2.5-2.4-.2-2.9-.1-5.7-.1-8.6 0-1.8-.8-3.2-2.4-4.1-.2-.1-.5-.1-.7-.2-.8-.6-1.7-.4-2.5-.4h-49.3c-.8 0-1.7-.2-2.5.4-2 .4-3 1.8-3.1 3.7-.2 2.7-.1 5.4-.1 8.1 0 3.6 0 3.6 3.5 3.6 14.5 0 29-.1 43.6-.1h11.1zm15.6 3.2c0 .9 0 1.7-.1 2.6 0 .7.2.9.9.9 3.9-.1 7.8-4.2 8-8.6.2-3.9-3.3-8.2-7.2-8.7-1.4-.7-1.8-.2-1.8 1.3.2 4.1.2 8.3.2 12.5zm29.9 38.2c1.3 2.4 3.9 3.5 6.4 2.8 2.7-.8 4.5-3.2 4.4-5.9-.1-2.6-2.1-4.7-4.9-5.2-2.7-.4-4.8.3-6.2 2.8-1 1.8-1 3.7.3 5.5zM80.7 124.4a8.3 8.3 0 0 0-5 7.7c0 3.9 2 6.6 5.5 8.2 3.4 1.5 3.7 1.2 3.4-2.4v-11.2c.1-4.1-.1-4.3-3.9-2.3zm-26.1 51.4c.2-1.1 1-2.1.9-3.4-.3-2.5-1.7-4.1-4-4.9-2.3-.8-4.3-.1-6 1.6-1.7 1.8-2 3.8-1 6 .8 2.4 2.8 3.5 5.1 3.6 2.2.1 4.1-.7 5-2.9zm175.2-61.1c-4.3 0-8.7 0-13-.1-2.8-.1-5-2.3-5.3-5a5.6 5.6 0 0 1 4.3-6.1c1.4-.3 2.9-.3 4.3-.4 1.5 0 3 .1 4.5.1 7.1.1 12.4-3.1 16.2-9 3.2-5 3-11.6-.4-15.8-.7-1.3-1.7-2.3-3-3.1-5.4-3.6-10.9-2.8-16.3.1-7.3 3.9-14.5 8-21.7 12-11.2 6.2-22.4 12.3-33.6 18.5-.7.3-1.5.7-2.2 1.1-.3.2-1 .4-.3.8 1.8 1.3 3 3.2 5.9 3.1 10.5-.3 18.6 5.5 22 15.4.2.5.2 1.1.9 1.4 6.2 2.5 12.2 5.2 19.2 4.7 8.9-.7 17.3-7.6 19.4-16.3.3-.7.7-1.7-.9-1.4zm-140-8.9c-.1-.8-.9-.9-1.4-1.1-11.5-6.3-23-12.7-34.5-18.9-7-3.8-13.9-7.9-21.1-11.3-7.6-3.7-15.9-.5-18.8 6.6-3.4 8.2 2.3 18.6 11.7 21.3 4.2 1.2 8.5.5 12.8.8 3.5.2 6 2.6 6.1 5.9 0 3.1-2.6 5.5-6.2 5.5-3.7.1-7.4 0-11.1 0-2.7 0-2.7 0-1.5 2.5 2 7.9 10.5 14.6 18.8 15.3 7 .5 13.1-2.4 19.4-4.7.5-.2.7-.6.8-1 2.2-9.3 11.9-16.6 22.7-15.9 1.7.1 3-.4 4-1.7.5-.6 1.9-1 1.6-1.7-.3-.7-1.6-1-2.4-1.5-.4-.1-.6 0-.9-.1zm60.1-50.6c-8-10.1-23.7-12.8-36-6.2-16.6 8.9-20.4 31.1-7.5 44.3 0 .1.1.2.1.3 7.7 8.5 20.4 11.8 31.1 7.9 11.3-4 19.3-14.5 19.7-26.3.3-7.6-2.1-14.4-7.4-20zm38.3 88.5c-.4.5-.6.7-.8.9-.7.8-1.4 1.7-2.2 2.4-1.1.9-.9 1.6-.1 2.5 2.2 2.4 4.3 4.9 6.4 7.3 2.4 2.8 2.4 2.8 5.3.9l.9-.6c.9-.4 1-.8.3-1.6-3.1-3.6-6.2-7.2-9.2-10.8-.2-.2-.3-.6-.6-1zm-116.4 4.5c-1.1-1.2-2.2-2.3-3.1-3.5-.6-.7-.8-.8-1.5 0-2.2 2.7-4.5 5.4-6.8 8.1-1 1.1-2.6 2.3-2.7 3.5-.1 1.5 2.3 1.7 3.2 2.9.6.7 1.1.7 1.7 0 2.8-3.3 5.6-6.6 8.5-9.8.2-.5.4-.8.7-1.2zm93.1-128.4c0-1.9-1.6-3.6-3.5-3.5-2 .1-3 1.3-3.1 3.3-.1 1.8 1.5 3.5 3.3 3.5 1.8 0 3.3-1.5 3.3-3.3zm-67.4 0c0-1.9-1.6-3.6-3.3-3.6-1.9 0-3.4 1.6-3.4 3.5 0 1.7 1.7 3.4 3.3 3.4 1.9 0 3.4-1.5 3.4-3.3z" style="fill:#0f0d04"/><path d="M68.1 189.4c2.8 0 5.3 2.6 5.2 5.4 0 2.9-2.6 5.4-5.5 5.3-2.9 0-5.2-2.5-5.2-5.4.1-3.1 2.4-5.3 5.5-5.3z" class="st1"/><path d="M187.9 200.1c-2.9 0-5.3-2.5-5.2-5.4 0-3.1 2.4-5.4 5.4-5.3 2.8 0 5.3 2.7 5.2 5.5 0 2.8-2.6 5.2-5.4 5.2z" class="st2"/><path d="M189.2 214.6c0 2.9-2.4 5.2-5.4 5.1-2.7 0-4.8-2.4-4.8-5.3s2.4-5.3 5.2-5.2c2.6.1 5 2.6 5 5.4zM66.8 214.4c0-2.9 2.4-5.2 5.2-5.1 2.7.1 5 2.6 5 5.4 0 2.8-2.4 5.1-5.3 5.1-2.9-.1-5-2.4-4.9-5.4z" class="st1"/><path d="M207 204.8c-1.3-.2-2.2-.9-2.1-2.3.1-1.2.7-2.1 2.1-2.1 1.4 0 2.2.9 2.2 2.1.1 1.4-.8 2.1-2.2 2.3zM48.7 200.4c1.4.1 2.3.8 2.3 2.1s-.8 2.2-2.2 2.2c-1.4 0-2.1-.9-2.2-2.2.1-1.2.8-2 2.1-2.1z" class="st2"/><path d="M106.4 93.3C93.5 80.2 97.2 58 113.9 49c12.4-6.6 28.1-4 36 6.2 0 .3 0 .7.1 1 2.1 4.5 2.5 9.3 2.4 14.2-.2 6-2.6 11.1-6.4 15.6-5.6 6.6-12.6 10.4-21.4 11.1-6.1.4-11.8-.6-17.1-3.7-.4-.4-.8-1.1-1.1-.1zm35.4-30.6c-3.8 0-6.8 3-6.8 6.7 0 3.5 3.1 6.6 6.5 6.6 3.8 0 6.9-3 6.9-6.6 0-3.6-3.1-6.7-6.6-6.7zm-27.3.1a6.6 6.6 0 0 0-.3 13.2c3.7 0 7-3 7-6.5.1-3.7-3-6.7-6.7-6.7z" style="fill:#fbfcfb"/><path d="M25.7 117.1c-1.2-2.5-1.2-2.5 1.5-2.5h11.1c3.5-.1 6.2-2.4 6.2-5.5 0-3.3-2.5-5.7-6.1-5.9-4.3-.3-8.6.4-12.8-.8-9.3-2.7-15-13.1-11.6-21.3 2.9-7.1 11.3-10.3 18.8-6.7 7.2 3.5 14.1 7.5 21.1 11.3l34.5 18.9c.5.3 1.3.4 1.4 1.1-.3.5-.8.6-1.3.7-4.2.9-8.4 1.6-12.5 2.8-6.2 1.9-12.6 3.2-18.6 5.9a4.2 4.2 0 0 0-3.3 0c-2.5.9-5.1 1.8-7.6 2.7-1.6.5-2.5 1.5-2.7 3.2-4.1.2-8-.6-11.9-1.9-2.1-.4-3.9-2-6.2-2zm35.6-14.9c0-1.7-.8-2.8-2.2-3.7-4.4-2.6-8.7-5.2-13.1-7.7-1.8-1-4-.5-5 1.2-1.2 1.9-.9 3.8.9 4.9 4.8 3 9.6 5.9 14.6 8.6 2.1 1.2 4.8-.8 4.8-3.3zM220.1 103.1c-1.4.1-2.9.1-4.3.4-2.8.6-4.6 3.2-4.3 6.1.3 2.7 2.6 5 5.3 5 4.3.1 8.7.1 13 .1-5.2 3.9-11.2 5.8-17.5 6.9-.3-2.2-1.7-3.3-3.7-3.9-2.3-.7-4.6-1.5-6.9-2.3-1.1-.4-2.1-.5-3.2-.1-6.1-2.2-12.4-3.7-18.6-5.6-4.7-1.4-9.5-2.2-14.1-3.8 11.2-6.2 22.4-12.3 33.6-18.5 7.2-4 14.4-8.1 21.7-12 5.3-2.9 10.8-3.7 16.3-.1 1.2.8 2.3 1.8 3 3.1-.8.6-.4 1.5-.4 2.3.1 3.6-.9 6.8-2.9 9.8-2.8 4.3-6.9 6.9-11.3 9.4-1.9 1-4 1.7-5.7 3.2zm-25.3-1.1c0 3.1 2.7 4.7 5.5 3.2 4.4-2.5 8.8-5 13.2-7.7 2.1-1.3 2.7-3.3 1.6-5.2-1.1-2-3.4-2.6-5.5-1.4-4.2 2.5-8.4 4.9-12.5 7.4-1.3.9-2.4 2-2.3 3.7z" class="st4"/><path d="M155.2 119.1c.2.1.5.1.7.2-.4.8.6 1.2.7 1.9-.2 2-.9 3.7-2 5.4-2.4 3.7-6.2 5.7-9.8 7.8-14.5 0-29 .1-43.6.1-3.5 0-3.6 0-3.5-3.6 0-2.7 0-5.4.1-8.1.1-1.9 1.1-3.2 3.1-3.7h54.3z" style="fill:#f7bb05"/><path d="M165.9 105.9c4.6 1.7 9.4 2.5 14.1 3.8 6.2 1.8 12.5 3.4 18.6 5.6-2.7 2.4-2.2 5.4 1.2 6.7 2.4.9 4.7 1.8 7.1 2.6 2.8 1 4.6-.1 5.4-3 6.3-1.1 12.3-3 17.5-6.9 1.6-.4 1.1.7.9 1.4-2.1 8.6-10.5 15.6-19.4 16.3-6.9.5-13-2.1-19.2-4.7-.6-.3-.7-.9-.9-1.4-3.5-9.9-11.5-15.7-22-15.4-2.9.1-4.1-1.9-5.9-3.1-.7-.5 0-.7.3-.8.8-.4 1.6-.8 2.3-1.1zM25.7 117.1c2.3 0 4.2 1.5 6.3 2.2 3.9 1.3 7.8 2.1 11.9 1.9.2 3.3 2.3 4.6 5.3 3.5 2.4-.9 4.9-1.8 7.3-2.7 3.3-1.3 3.7-4.3 1-6.6 6-2.7 12.4-4 18.6-5.9 4.1-1.2 8.3-2 12.5-2.8.5-.1 1-.2 1.3-.7.2 0 .5 0 .7.1.9.5 2.1.8 2.4 1.5.3.7-1.1 1.1-1.6 1.7-1 1.3-2.3 1.8-4 1.7-10.8-.7-20.5 6.5-22.7 15.9-.1.5-.3.8-.8 1-6.3 2.3-12.4 5.2-19.4 4.7-8.4-.8-16.9-7.6-18.8-15.5z" class="st6"/><path d="M106.4 93.3c.4-1 .7-.3 1.1 0 5.3 3.1 11 4.2 17.1 3.7 8.8-.6 15.8-4.5 21.4-11.1 3.7-4.5 6.2-9.6 6.4-15.6.2-4.9-.3-9.7-2.4-14.2-.1-.3-.1-.7-.1-1 5.3 5.7 7.7 12.4 7.4 20.1-.4 11.8-8.3 22.3-19.7 26.3-10.7 3.8-23.4.6-31.1-7.9 0-.1-.1-.2-.1-.3zM220.1 103.1c1.7-1.4 3.8-2.2 5.7-3.3 4.3-2.4 8.4-5.1 11.3-9.4 2-3 3-6.2 2.9-9.8 0-.7-.4-1.6.4-2.3 3.4 4.1 3.6 10.8.4 15.8-3.8 5.9-9.1 9-16.2 9h-4.5z" class="st7"/><path d="M188.2 143.7c.2.4.4.7.6 1 3.1 3.6 6.1 7.2 9.2 10.8.7.8.6 1.2-.3 1.6-.3.1-.6.4-.9.6-2.9 2-2.9 2-5.3-.9-2.1-2.5-4.2-4.9-6.4-7.3-.8-.9-1.1-1.6.1-2.5.9-.7 1.5-1.6 2.2-2.4.2-.1.4-.4.8-.9z" class="st8"/><path d="M71.8 148.2c-.2.3-.4.7-.7 1-2.8 3.3-5.7 6.5-8.5 9.8-.6.8-1.1.8-1.7 0-1-1.2-3.3-1.4-3.2-2.9.1-1.2 1.7-2.3 2.7-3.5 2.3-2.7 4.6-5.3 6.8-8.1.6-.8.9-.7 1.5 0 .9 1.4 2 2.5 3.1 3.7z" class="st9"/><path d="M44.5 175.2c-1-2.2-.7-4.3 1-6 1.6-1.7 3.7-2.4 6-1.6 2.3.8 3.7 2.4 4 4.9.2 1.2-.7 2.2-.9 3.4-.3.1-.6 0-.8.2-3.7 2.2-4.5 2.2-8.1-.6-.4-.5-.8-.6-1.2-.3z" class="st10"/><path d="M80.7 124.4c3.7-1.9 4-1.8 4 2.3v11.2c-4.5 0-7.8-4.3-6.9-8.6.5-2.1 2.2-3.2 2.9-4.9z" class="st4"/><path d="M201.4 175.8a4.99 4.99 0 0 1-.3-5.6c1.3-2.4 3.5-3.2 6.2-2.8.1.9.8 1.2 1.3 1.8 1.6 1.9 1.6 5.4.1 7.1-1.4 1.6-3.8 1.7-5.8.3-.5-.3-.9-.7-1.5-.8z" class="st10"/><path d="M173.2 123.7c3.9.5 7.4 4.8 7.2 8.7-.3 4.4-4.1 8.5-8 8.6-.7 0-.9-.2-.9-.9 0-.9 0-1.7.1-2.6 2.2-.1 4.3-2.9 4.6-5.7.2-3.2-1.4-5.6-3-8.1z" class="st8"/><path d="M144.7 191.5c2-1.4 4.3-2.5 6.1-4.1 2.4-2.1 4.3-4.6 5.3-7.7.5-.6.3-1.4.4-2.1 1.8-1.2-.1 1.6 1.1 1.1 1.2 3.6.9 7.2.3 10.8-.9.5-1.8 1-2 2.1h-.1c-3.7-.1-7.4-.1-11.1-.1zM144.7 134.4c3.7-2.1 7.4-4.1 9.8-7.8 1.1-1.7 1.8-3.4 2-5.4.5.1.5.4.7.8.9 2.2.7 4.5.6 6.7-.1 2.1 1 4.6-2 5.6-3.7.1-7.4.1-11.1.1z" class="st11"/><path d="M157.9 147.8c.5.2.4.7.4 1 0 4.2.1 8.5.1 12.7 0 .5.3 1.2-.5 1.4-.1-.1-.2-.3-.3-.4.8-3.9.4-7.8.1-11.7 0-.6.3-2-.8-2.5-19.1 0-38.2 0-57.3-.1-1.1 0-1.6.2-1.5 1.4.1 3.2 0 6.5.1 9.7.5 1.1-1.5 3.4 1.5 3.4h44.9c4.3-.1 8.7.5 13-.3v.4c-4.7.1-9.5.2-14.2.2-14.8 0-29.6 0-44.4.1-.5 0-1.1.2-1.4-.3.5-4.4.2-8.8.2-13.1 0-1.5.4-1.8 1.9-1.8h55.8c.7.1 1.5 0 2.4-.1z" class="st12"/><path d="M173.2 123.7c1.6 2.5 3.2 5 2.8 8.2-.3 2.8-2.4 5.5-4.6 5.7 0-4.2 0-8.4-.1-12.6.1-1.6.5-2 1.9-1.3z" class="st4"/><path d="M80.7 124.4c-.7 1.8-2.5 2.8-2.9 5-.9 4.3 2.5 8.6 6.9 8.6.3 3.6-.1 3.9-3.4 2.4-3.5-1.6-5.6-4.3-5.5-8.2 0-3.7 1.7-6.3 4.9-7.8z" style="fill:#c7c3bc"/><path d="M164.9 19.8c0 1.8-1.5 3.3-3.3 3.3a3.5 3.5 0 0 1-3.3-3.5c.1-1.9 1.1-3.2 3.1-3.3 2-.1 3.5 1.5 3.5 3.5zM97.5 19.8c0 1.8-1.5 3.3-3.3 3.3-1.6 0-3.3-1.7-3.3-3.4 0-1.9 1.5-3.5 3.4-3.5 1.7.1 3.2 1.8 3.2 3.6z" class="st14"/><path d="M201.4 175.8c.6 0 1 .5 1.5.8 2.1 1.4 4.4 1.3 5.8-.3 1.5-1.7 1.5-5.2-.1-7.1-.5-.6-1.2-.9-1.3-1.8 2.8.5 4.7 2.6 4.9 5.2.1 2.7-1.7 5.1-4.4 5.9-2.5.8-5.1-.3-6.4-2.7z" class="st8"/><path d="M157.7 178.6c-1.2.5.7-2.2-1.1-1.1-.3-.9-1-.6-1.6-.6h-54.2c-1.9 0-3 .6-2.6 2.8 0 3.2-.1 6.4-.1 9.6-1.1-2.5-.5-5.1-.5-7.7-.1-4.9 0-4.9 4.9-4.9h53.3c.8 0 1.8-.4 2.3.4.1.3.5 1.2-.4 1.5z" class="st12"/><path d="M157.9 147.8c-.9 0-1.7.1-2.6.1H99.5c-1.4 0-1.8.4-1.9 1.8 0 4.4.3 8.8-.2 13.1 0-4.7 0-9.4-.1-14.1 0-1.4.9-1.2 1.8-1.2h47.8c3.7.2 7.4.3 11 .3z" style="fill:#9a7513"/><path d="M144.7 191.5c3.7 0 7.4.1 11.1.1-.7.8-1.7.6-2.6.6h-50.7c-.6 0-1.2.1-1.7-.3 13.6 0 27.1 0 40.7-.1.8 0 1.7.2 2.5-.3h.7z" class="st16"/><path d="M155.2 119.1h-54.3c.8-.6 1.7-.4 2.5-.4h49.3c.8 0 1.7-.1 2.5.4z" style="fill:#d2b754"/><path d="M144.1 191.5c-.8.6-1.7.3-2.5.3-13.6 0-27.1 0-40.7.1-.3-.1-.5-.3-.8-.4h44z" style="fill:#edb938"/><path d="M44.5 175.2c.5-.3.8-.1 1.2.2 3.6 2.8 4.4 2.8 8.1.6.2-.1.6-.1.8-.2-1 2.2-2.8 3-5 2.9-2.4 0-4.3-1.1-5.1-3.5z" class="st9"/><path d="M155.9 134.4c3-1.1 1.9-3.6 2-5.6.1-2.3.2-4.5-.6-6.7-.2-.4-.2-.8-.7-.8-.1-.7-1-1-.7-1.9 1.6.9 2.4 2.3 2.4 4.1.1 2.9-.1 5.8.1 8.6.2 2-.5 2.8-2.5 2.3z" class="st12"/><path d="M142.4 205.4c-8.5-.1-17 0-25.5 0h-4.8c.6 1.1.9 2.2 1.9 2.8.6 1.3 1.7 2.1 2.8 2.8 2.9 2.6 6.4 3.5 10.1 3.9 6.1.7 14-3.4 16.5-8.5.1 0 .2-.1.2-.1.7-1.7-.9-.9-1.2-.9z" style="fill:#d89903"/><path d="M155.9 191.5c.2-1.1 1.1-1.7 2-2.1-.2 1-.7 1.9-2 2.1z" class="st16"/><path d="M157.6 163v-.4c.1.1.2.3.3.4l-.1.1-.2-.1z" class="st20"/><path d="M88.9 89.1v.4c-.1-.1-.1-.2-.2-.2.1-.1.1-.2.2-.2z" style="fill:#fcfefd"/><path d="M141.8 62.7c3.5 0 6.6 3.1 6.7 6.6 0 3.6-3.1 6.6-6.9 6.6-3.4 0-6.5-3.1-6.5-6.6-.1-3.6 2.9-6.6 6.7-6.6zM114.5 62.8c3.7 0 6.8 3 6.7 6.7 0 3.5-3.3 6.5-7 6.5-3.4 0-6.3-3-6.3-6.6.1-3.7 3-6.6 6.6-6.6zM61.3 102.2c-.1 2.5-2.7 4.4-4.9 3.3-5-2.7-9.8-5.6-14.6-8.6-1.8-1.1-2-3-.9-4.9 1-1.7 3.2-2.2 5-1.2 4.4 2.5 8.8 5.1 13.1 7.7 1.5.9 2.3 2.1 2.3 3.7z" class="st1"/><path d="M57.4 115.3c2.7 2.3 2.3 5.3-1 6.6-2.4 1-4.9 1.8-7.3 2.7-3.1 1.1-5.1-.2-5.3-3.5.2-1.6 1.1-2.7 2.7-3.2 2.6-.8 5.1-1.7 7.6-2.7 1.1-.3 2.2-.4 3.3.1z" class="st22"/><path d="M194.8 102c0-1.7 1-2.8 2.4-3.6 4.2-2.5 8.3-5 12.5-7.4 2.1-1.2 4.4-.6 5.5 1.4 1.1 1.8.5 3.9-1.6 5.2-4.4 2.6-8.8 5.2-13.2 7.7-2.9 1.5-5.6-.2-5.6-3.3z" class="st1"/><path d="M212.3 121.6c-.8 2.9-2.6 4-5.4 3-2.4-.8-4.8-1.7-7.1-2.6-3.4-1.3-3.9-4.3-1.2-6.7 1.1-.4 2.1-.3 3.2.1 2.3.9 4.6 1.6 6.9 2.3 1.9.7 3.4 1.7 3.6 3.9z" class="st22"/><path d="M156.1 179.6c.5-.6.3-1.4.4-2.1-.3-.9-1-.6-1.6-.6h-54.2c-1.9 0-3 .6-2.6 2.8 0 3.2-.1 6.4-.1 9.6.3 1.1.8 2 2 2.2h44.7c2-1.4 4.3-2.5 6.1-4.1 2.4-2.2 4.4-4.6 5.3-7.8-8-.7-16-.8-24-.8 8 .1 16 .2 24 .8zm-36-.6h6c-2-.1-4-.1-6 0z" style="fill:#f7bb0e"/><path d="M156.2 150.4c.2-.7.5-1.4.7-2.1 1.1.5.8 1.9.8 2.5.2 3.9.6 7.8-.1 11.7-4.3.8-8.6.2-13 .3 1.7-1.1 3.5-2.2 5.2-3.3a16 16 0 0 0 6.1-7.7v-.3c.3-.3.3-.7.3-1.1z" class="st20"/><path d="M156.2 150.4c.2-.7.5-1.4.7-2.1-19.1 0-38.2 0-57.3-.1-1.1 0-1.6.2-1.5 1.4.1 3.2 0 6.5.1 9.7.5 1.1-1.5 3.4 1.5 3.4h44.9c1.7-1.1 3.5-2.2 5.2-3.3a16 16 0 0 0 6.1-7.7h-16.4 16.4v-.3c.3-.2.3-.6.3-1-.1-.2-.3-.3-.5-.4.2.1.3.2.5.4z" style="fill:#faba0c"/></svg>